PathFileType	4	(X/Y/Z)	Patient4_TMGait_0pt3_03_right_14.trc.trc
DataRate	CameraRate	NumFrames	NumMarkers	Units	OrigDataRate	OrigDataStartFrame	OrigNumFrames
55.118110236220	55.118110236220	5	33	mm	55.118110236220	124	       141
Frame#	Time	Sacral			L.Shoulder			Chest			R.Shoulder			Neck			R.ASIS			L.ASIS			R.Thigh.Superior			R.Thigh.Lateral			R.Thigh.Inferior			R.Patella			L.Thigh.Superior			L.Thigh.Lateral			L.Thigh.Inferior			L.Patella			L.Shank.Superior			L.Shank.Lateral			L.Shank.Inferior			R.Shank.Superior			R.Shank.Lateral			R.Shank.Inferior			R.Heel			R.Midfoot.Superior			R.Midfoot.Lateral			R.Toe			L.Heel			L.Midfoot.Lateral			L.Midfoot.Superior			L.Toe			L.Elbow			L.Wrist			R.Elbow			R.Wrist			
		X1	Y1	Z1	X2	Y2	Z2	X3	Y3	Z3	X4	Y4	Z4	X5	Y5	Z5	X6	Y6	Z6	X7	Y7	Z7	X8	Y8	Z8	X9	Y9	Z9	X10	Y10	Z10	X11	Y11	Z11	X12	Y12	Z12	X13	Y13	Z13	X14	Y14	Z14	X15	Y15	Z15	X16	Y16	Z16	X17	Y17	Z17	X18	Y18	Z18	X19	Y19	Z19	X20	Y20	Z20	X21	Y21	Z21	X22	Y22	Z22	X23	Y23	Z23	X24	Y24	Z24	X25	Y25	Z25	X26	Y26	Z26	X27	Y27	Z27	X28	Y28	Z28	X29	Y29	Z29	X30	Y30	Z30	X31	Y31	Z31	X32	Y32	Z32	X33	Y33	Z33	

124	28.711571428571	638.661580839106	1014.341601612109	408.320328816299	878.359624629707	1423.678711556704	242.704093103788	953.661583609717	1353.583539528474	415.610414210511	858.132972243329	1441.598436005283	576.299094637866	843.538785370711	1489.164024090690	402.510849123151	851.409050676394	933.317397753772	548.573392147433	864.831725390667	954.407387603869	275.064024007032	907.462664819002	749.424384227701	522.701169155746	845.252655993404	633.625212650261	589.615597077112	931.235003278736	588.085833694678	511.647054598585	952.917767520251	505.978902366272	526.707209812225	882.088133027095	733.815056499987	300.685480002585	781.445422745044	627.334573039391	238.556095184423	854.833710365726	541.942416792249	303.719733749160	846.413745096380	472.053437553741	311.536657544908	808.323853031213	404.710495418696	304.044986013961	702.611396067231	302.727055202777	255.909899774657	740.202004737400	185.914328115354	325.379868161127	931.793754661558	417.607089390390	537.062925033950	870.712127285434	308.711987899550	601.951660849478	931.453682695284	217.323209316415	548.897550340825	821.852643838493	41.336767814515	525.903615309115	990.955128000996	103.495766538494	559.318319053092	908.041705786537	35.888096458869	597.388581146611	1112.881033090807	58.880659357365	581.180976016532	599.276884989206	38.970421151611	376.957550808065	666.031033873842	34.909880456941	290.747579409342	752.786610550144	94.695799508960	311.226662471309	877.532672249381	39.710916488569	270.657178162280	946.020196110468	1106.692658967450	81.442152530651	1201.297495260635	1076.388280333284	102.064284697620	685.174309146136	1144.129389287425	683.053176275906	659.866479138633	883.702501377322	703.752225209035	
125	28.729714285714	639.766426125900	1012.978339057942	412.115295130747	877.635090855747	1423.737051305817	248.212133535159	953.221335704341	1353.743400973890	420.973129450876	857.139615379369	1440.970098368477	581.796945773019	842.350793665450	1488.593337394159	408.129204327251	852.799043095937	932.133858316417	552.045038283268	866.366665365070	954.450882229120	278.786655740043	909.521392606180	747.916648012150	525.145797245702	845.829519115941	631.840681403921	590.592950244493	932.165401067060	587.021491640397	512.694492827984	952.769996544489	504.401083922483	526.562591755625	882.938542870555	732.881711605397	303.884301529368	781.667466951679	626.975056266328	241.154228943765	854.295950785555	540.896323530170	306.074002451185	845.375906063906	470.752340812551	313.528262721002	806.370319805126	403.844189517482	305.796581371617	699.490866345658	303.217410778705	257.164991496816	735.854050776656	185.625716594173	325.969492716206	931.434521506419	415.482651310048	536.930683182966	869.985716110480	306.981641203671	601.883969012063	929.155584025541	215.358750586871	547.889806908729	817.455617257612	41.152222481393	525.324369757401	986.965284244508	101.807983355165	557.618392463822	903.529269801372	35.906866493122	596.879734248752	1108.666047425607	56.396128260256	580.012240472658	593.823161877525	39.169588368847	376.870697049189	660.658606718941	34.957028731195	290.759332015670	747.503948555574	94.707252182034	311.264210795642	872.154618111029	39.573933668781	270.605963541958	945.738302996238	1106.157369609524	87.406873935048	1201.411918232863	1078.235304452992	107.249351607465	686.725254352970	1141.994116186678	687.955979704428	663.137927033224	881.332320653795	708.799108976507	
126	28.747857142857	640.927458690941	1011.717682283184	416.272495906515	876.911344552205	1423.945654381074	253.875199109960	952.879136819968	1353.982450948080	426.438151962068	856.307582853682	1440.356616799688	587.476286713444	841.255767160625	1488.130082368814	413.953221190362	854.375623541717	931.231086174150	555.746439763598	867.859352953001	954.536050359703	282.735466392903	912.070659401249	746.964728519280	527.544453489569	847.402070275274	630.549811921184	591.741330852618	933.940134688311	586.465677332706	513.752116787695	953.512855373181	502.996526893692	526.606643030979	883.899426993266	732.041063502969	307.271299305260	782.055393498734	626.650870355210	243.965526157390	854.083014543888	539.917732121468	308.549015887075	844.745610015921	469.461091803597	315.572277378905	804.712084394708	403.021333812317	307.623500846317	696.546051902421	303.883131122798	258.557015989983	731.629170907800	185.429009047648	326.565111941338	931.568105263462	413.552313251924	536.959656911097	869.373216174303	305.670884330705	602.041910021819	926.442092883954	213.568646283267	546.998747830920	811.955152899204	41.211186796104	524.805095753779	981.925181979712	100.347299388021	556.199883663357	897.878590686977	36.070778119673	596.484652252092	1103.390094087730	54.024238786219	579.200075655471	588.398512212635	39.573031300046	376.756201852349	655.327070888791	35.089116493316	290.762766323095	742.311694822577	94.736313650587	311.257599271040	866.805722219299	39.402991294416	270.530688081070	944.874584255695	1105.529376745446	93.600429355678	1200.935409514650	1078.970243223669	112.479479357168	688.979210638182	1139.489631827430	693.144379570451	667.285673643986	878.658712340830	714.390388401275	
127	28.766000000000	642.122827989868	1010.610144554850	420.771844464789	876.225630270057	1424.311797560874	259.650471643005	952.630858286885	1354.314560153938	431.978443703750	855.631165995038	1439.810102375142	593.286147200633	840.270693749488	1487.810940007744	419.919589552011	856.088699408808	930.618411756541	559.707747550166	869.275423533026	954.697535900393	286.916120820762	914.927213396377	746.524939856559	529.973127428443	849.774123162170	629.724250965808	593.174621860149	936.328178459588	586.313341258762	514.937056469438	954.934215265513	501.766779029054	526.967601307526	884.882796026135	731.336633119086	310.829347386699	782.537382628760	626.416631106932	246.947325579097	854.145891431786	539.057085389447	311.087483945828	844.485208337668	468.228083114171	317.587552106883	803.324951545714	402.298136670819	309.458505521072	693.755391694204	304.774866261099	260.054287900651	727.541826737018	185.386244637188	327.131337272248	932.088550837091	411.858847726789	537.233669544699	868.925140178269	304.714184789310	602.492649404677	923.534243992406	211.991765423606	546.301359349015	805.863573581479	41.412437147904	524.394325061007	976.302508075932	99.153921621889	555.118825181489	891.630845907795	36.296159441832	596.214354017850	1097.550925002211	51.880080577111	578.712207615113	583.021339119766	40.285326628705	376.607704972453	650.041461867839	35.362999606041	290.749497602941	737.237752706966	94.801247360529	311.184280068490	861.479229525370	39.195933657516	270.430938212293	943.440661081257	1104.863341065497	99.947415086170	1199.855787455503	1078.539587116651	117.766453781161	691.742700931921	1136.812763017513	698.588832883106	672.141884489853	875.881850761285	720.510596269981	
128	28.784142857143	643.333546745938	1009.687518114632	425.603001739108	875.576591758569	1424.836464965133	265.507336925845	952.460175479127	1354.753915542223	437.570287023125	855.100952203438	1439.370779849528	599.189628296674	839.392507118508	1487.660561768950	425.980040052589	857.902318488608	930.273167776453	563.937963033626	870.581241694204	954.970701603940	291.323395665207	917.898435557244	746.484419577341	532.525556989721	852.652829678374	629.279310550471	594.980139737678	939.035444246049	586.417226912109	516.363648217615	956.746226798152	500.683164573137	527.736226740826	885.829360676722	730.815621940643	314.532419787690	783.083110432561	626.321940477460	250.048802953304	854.476772205985	538.366814013834	313.630330595453	844.596838957688	467.100163322984	319.492337941748	802.221874072435	401.727479825083	311.234709609081	691.132893022016	305.948723258070	261.617347078105	723.626925830129	185.567021457925	327.633338343621	932.811119292081	410.405930305485	537.808685391576	868.582516938591	304.023683768628	603.254214760955	920.553134047107	210.639987118648	545.845237689335	799.567958288973	41.681452056344	524.111611039097	970.450436465501	98.233913397056	554.383363545444	885.191528953643	36.525246464999	596.061608866242	1091.516889129019	50.020930101336	578.496651174064	577.717092875357	41.434046096471	376.419112346653	644.808775563536	35.855121876840	290.710333478271	732.316141427095	94.930994061662	311.021726297479	856.164599120439	38.952217285140	270.309065715137	941.442476985666	1104.213523349267	106.387965352228	1198.121984808537	1076.869982415525	123.119675312920	694.834655690829	1134.144694903639	704.276394565148	677.566122660010	873.180482813043	727.136968894068	
